<svg width="500" height="500" viewBox="0 0 500 500" fill="none" xmlns="http://www.w3.org/2000/svg">
<rect width="500" height="500" fill="#244C5A"/>
<path d="M77.7637 361.306C81.0433 365.674 85.3055 369.207 90.2043 371.618C95.5024 374.245 101.349 375.574 107.26 375.494C112.04 375.619 116.799 374.807 121.267 373.102C124.841 371.696 128.031 369.463 130.577 366.586C132.966 363.782 134.71 360.487 135.686 356.933C136.749 353.093 137.276 349.123 137.25 345.138V331.28H136.922C133.824 336.196 129.355 340.097 124.067 342.499C119.025 344.696 113.582 345.82 108.083 345.798C102.695 345.839 97.3508 344.83 92.3472 342.829C87.6095 340.946 83.2746 338.174 79.5757 334.662C75.9054 331.134 72.9899 326.895 71.0065 322.204C68.8959 317.252 67.8301 311.916 67.8757 306.532C67.8302 301.163 68.8383 295.838 70.8428 290.858C72.7375 286.147 75.5047 281.837 78.9988 278.155C82.4924 274.503 86.6995 271.611 91.3582 269.658C96.343 267.583 101.697 266.545 107.096 266.606C109.554 266.62 112.006 266.841 114.427 267.265C117.09 267.731 119.689 268.506 122.172 269.576C128.068 272.134 133.164 276.238 136.922 281.456H137.25V268.585H148.127V345.138C148.09 349.636 147.565 354.117 146.561 358.501C145.511 363.242 143.43 367.692 140.465 371.534C137.091 375.774 132.774 379.164 127.858 381.435C122.474 384.073 115.443 385.393 106.765 385.393C99.7151 385.513 92.7123 384.223 86.1669 381.599C79.9048 378.913 74.2874 374.92 69.6901 369.886L77.7637 361.306ZM79.7406 306.203C79.7134 310.135 80.4699 314.032 81.9659 317.668C83.3921 321.157 85.4597 324.347 88.0614 327.072C90.648 329.772 93.7238 331.956 97.1252 333.507C100.668 335.119 104.521 335.935 108.413 335.899C116.121 335.926 123.548 333.005 129.176 327.733C131.94 325.121 134.105 321.94 135.521 318.41C137.047 314.528 137.749 310.371 137.581 306.203C137.609 302.293 136.939 298.409 135.603 294.735C134.334 291.243 132.372 288.045 129.835 285.332C127.228 282.582 124.088 280.392 120.608 278.898C116.754 277.258 112.6 276.443 108.413 276.505C104.521 276.469 100.669 277.286 97.1252 278.898C93.7249 280.45 90.6494 282.633 88.0614 285.332C85.4606 288.058 83.3927 291.247 81.9647 294.735C80.4694 298.372 79.7133 302.27 79.7406 306.203ZM192.453 345.798H180.589V228.989H216.512C228.376 228.989 237.742 231.574 244.608 236.743C251.473 241.914 254.906 249.723 254.908 260.171C255.116 267.754 252.368 275.121 247.245 280.711C242.136 286.266 234.748 289.483 225.081 290.362L258.698 345.797H244.195L212.228 291.518H192.454L192.453 345.798ZM192.453 280.629H213.546C218.078 280.725 222.601 280.169 226.976 278.979C230.175 278.123 233.172 276.637 235.792 274.608C237.906 272.905 239.55 270.691 240.57 268.174C241.573 265.626 242.076 262.909 242.054 260.171C242.066 257.488 241.562 254.828 240.57 252.335C239.538 249.802 237.897 247.563 235.792 245.818C233.198 243.749 230.192 242.258 226.976 241.445C222.591 240.315 218.073 239.788 213.546 239.879H192.453V280.629ZM279.128 228.989H313.076C324.939 228.989 334.304 231.574 341.17 236.744C348.035 241.915 351.469 249.725 351.47 260.172C351.47 270.623 348.037 278.459 341.17 283.681C334.304 288.907 324.939 291.519 313.076 291.518H290.994V345.798H279.128V228.989ZM290.995 280.631H310.111C314.643 280.726 319.166 280.17 323.541 278.98C326.74 278.123 329.737 276.637 332.357 274.609C334.47 272.906 336.115 270.692 337.135 268.175C338.138 265.627 338.642 262.91 338.619 260.172C338.631 257.489 338.127 254.829 337.135 252.336C336.103 249.803 334.462 247.564 332.357 245.819C329.762 243.75 326.756 242.26 323.541 241.447C319.156 240.316 314.638 239.789 310.111 239.88H290.994L290.995 280.631ZM470.607 327.32C468.52 330.417 466.057 333.243 463.277 335.735C460.266 338.442 456.914 340.744 453.306 342.58C449.455 344.549 445.392 346.072 441.195 347.119C436.694 348.237 432.071 348.791 427.434 348.768C419.161 348.845 410.955 347.275 403.294 344.149C396.063 341.223 389.497 336.866 383.989 331.337C378.482 325.809 374.146 319.224 371.243 311.977C368.103 304.166 366.535 295.812 366.629 287.394C366.535 278.975 368.103 270.621 371.243 262.81C374.146 255.564 378.482 248.979 383.989 243.45C389.497 237.922 396.063 233.565 403.294 230.64C410.955 227.513 419.161 225.943 427.434 226.02C434.89 226.06 442.272 227.516 449.187 230.309C456.562 233.264 462.997 238.168 467.806 244.498L457.426 252.253C456.032 250.173 454.369 248.287 452.481 246.643C450.301 244.71 447.894 243.048 445.315 241.694C442.559 240.241 439.659 239.08 436.662 238.23C433.663 237.361 430.556 236.916 427.434 236.909C420.512 236.796 413.65 238.204 407.33 241.034C401.597 243.638 396.464 247.401 392.254 252.087C388.086 256.786 384.868 262.249 382.777 268.174C378.383 280.609 378.383 294.178 382.777 306.613C384.867 312.538 388.086 318.001 392.254 322.699C396.463 327.386 401.597 331.15 407.33 333.753C413.649 336.585 420.512 337.994 427.434 337.879C430.501 337.88 433.562 337.604 436.58 337.054C439.65 336.489 442.639 335.547 445.479 334.249C448.473 332.875 451.249 331.067 453.718 328.886C456.493 326.404 458.906 323.545 460.885 320.391L470.607 327.32Z" fill="white"/>
<path d="M29.4034 205.933L28.862 210.733V205.933H29.4034Z" fill="#75CACA"/>
<path d="M30.12 205.933L28.862 217.075V210.733L29.4034 205.933H30.12V205.933Z" fill="#74CBCA"/>
<path d="M30.8354 205.933L28.862 223.417V217.075L30.12 205.933H30.8354V205.933Z" fill="#74CBCA"/>
<path d="M31.5509 205.933L28.862 229.759V223.417L30.8354 205.933H31.5509Z" fill="#73CBCA"/>
<path d="M32.2663 205.933L28.862 236.101V229.759L31.5509 205.933H32.2663Z" fill="#73CBCA"/>
<path d="M32.9829 205.933L28.862 242.444V236.101L32.2663 205.933H32.9829ZM33.6983 205.933L28.862 248.785V242.444L32.9829 205.933H33.6983V205.933Z" fill="#72C9C9"/>
<path d="M34.4138 205.933L28.862 255.127V248.785L33.6983 205.933H34.4138V205.933Z" fill="#70CACA"/>
<path d="M35.1292 205.933L28.862 261.469V255.127L34.4138 205.933H35.1292V205.933Z" fill="#70CACA"/>
<path d="M35.8458 205.933L28.9318 267.195L28.862 267.187V261.469L35.1292 205.933H35.8458V205.933Z" fill="#6FCAC8"/>
<path d="M36.5612 205.933L29.6426 267.233H29.2637L28.9318 267.195L35.8458 205.933H36.5612V205.933Z" fill="#6EC8C8"/>
<path d="M37.2767 205.933L30.3592 267.233H29.6426L36.5612 205.933H37.2767Z" fill="#6EC8C8"/>
<path d="M37.9933 205.933L31.0747 267.233H30.3592L37.2767 205.933H37.9933Z" fill="#6CC9C9"/>
<path d="M38.7087 205.933L31.7901 267.233H31.0747L37.9933 205.933H38.7087Z" fill="#6DC9C8"/>
<path d="M39.4241 205.933L32.5067 267.233H31.7901L38.7087 205.933H39.4241V205.933Z" fill="#69C7C8"/>
<path d="M40.1396 205.933L33.2221 267.233H32.5067L39.4241 205.933H40.1396Z" fill="#69C7C8"/>
<path d="M40.8562 205.933L33.9376 267.233H33.2221L40.1396 205.933H40.8562V205.933Z" fill="#69C8C7"/>
<path d="M41.5716 205.933L34.653 267.233H33.9376L40.8562 205.933H41.5716V205.933Z" fill="#68C8C7"/>
<path d="M42.287 205.933L35.3696 267.233H34.653L41.5716 205.933H42.287V205.933Z" fill="#67C7C7"/>
<path d="M43.0025 205.933L36.085 267.233H35.3696L42.287 205.933H43.0025V205.933Z" fill="#65C7C7"/>
<path d="M43.7191 205.933L36.8005 267.233H36.085L43.0025 205.933H43.7191V205.933Z" fill="#64C7C7"/>
<path d="M44.4345 205.933L37.5159 267.233H36.8005L43.7191 205.933H44.4345V205.933Z" fill="#63C6C6"/>
<path d="M45.1499 205.933L38.2325 267.233H37.5159L44.4345 205.933H45.1499V205.933Z" fill="#60C6C6"/>
<path d="M45.8654 205.933L38.9479 267.233H38.2325L45.1499 205.933H45.8654V205.933Z" fill="#60C6C5"/>
<path d="M46.582 205.933L39.6634 267.233H38.9479L45.8654 205.933H46.582V205.933Z" fill="#5FC6C5"/>
<path d="M47.2974 205.933L40.3788 267.233H39.6634L46.582 205.933H47.2974V205.933Z" fill="#5CC5C4"/>
<path d="M48.0128 205.933L41.0954 267.233H40.3788L47.2974 205.933H48.0128V205.933Z" fill="#5AC5C4"/>
<path d="M48.7283 205.933L41.8108 267.233H41.0954L48.0128 205.933H48.7283V205.933Z" fill="#5AC5C4"/>
<path d="M49.4449 205.933L42.5263 267.233H41.8108L48.7283 205.933H49.4449V205.933Z" fill="#57C4C4"/>
<path d="M50.1603 205.933L43.2417 267.233H42.5263L49.4449 205.933H50.1603V205.933Z" fill="#58C4C3"/>
<path d="M50.8757 205.933L43.9583 267.233H43.2417L50.1603 205.933H50.8757V205.933Z" fill="#55C4C3"/>
<path d="M51.5912 205.933L44.6737 267.233H43.9583L50.8757 205.933H51.5912V205.933Z" fill="#53C3C2"/>
<path d="M52.3078 205.933L45.3892 267.233H44.6737L51.5912 205.933H52.3078V205.933Z" fill="#52C3C2"/>
<path d="M53.0232 205.933L46.1046 267.233H45.3892L52.3078 205.933H53.0232V205.933Z" fill="#50C3C2"/>
<path d="M53.7386 205.933L46.8212 267.233H46.1046L53.0232 205.933H53.7386Z" fill="#50C1C0"/>
<path d="M54.4552 205.933L47.5366 267.233H46.8212L53.7386 205.933H54.4552V205.933Z" fill="#4BC2C0"/>
<path d="M55.1707 205.933L48.2521 267.233H47.5366L54.4552 205.933H55.1707V205.933Z" fill="#4CC1C0"/>
<path d="M55.8861 205.933L48.9675 267.233H48.2521L55.1707 205.933H55.8861V205.933Z" fill="#47C1BE"/>
<path d="M56.6015 205.933L49.6841 267.233H48.9675L55.8861 205.933H56.6015V205.933Z" fill="#46C0BE"/>
<path d="M57.3181 205.933L50.3995 267.233H49.6841L56.6015 205.933H57.3181V205.933Z" fill="#43C0BE"/>
<path d="M58.0336 205.933L51.115 267.233H50.3995L57.3181 205.933H58.0336V205.933Z" fill="#40BFBD"/>
<path d="M58.749 205.933L51.8316 267.233H51.115L58.0336 205.933H58.749V205.933Z" fill="#3BBFBD"/>
<path d="M59.4645 205.933L52.547 267.233H51.8316L58.749 205.933H59.4645V205.933Z" fill="#39BFBC"/>
<path d="M60.181 205.933L53.2625 267.233H52.547L59.4645 205.933H60.181V205.933Z" fill="#34BEBD"/>
<path d="M60.8965 205.933L53.9779 267.233H53.2625L60.181 205.933H60.8965V205.933Z" fill="#32BEBB"/>
<path d="M61.6119 205.933L54.6945 267.233H53.9779L60.8965 205.933H61.6119V205.933Z" fill="#2DBDBB"/>
<path d="M62.3274 205.933L55.4099 267.233H54.6945L61.6119 205.933H62.3274V205.933Z" fill="#24BCBB"/>
<path d="M63.0439 205.933L56.1254 267.233H55.4099L62.3274 205.933H63.0439V205.933Z" fill="#21BCB9"/>
<path d="M63.7594 205.933L56.8408 267.233H56.1254L63.0439 205.933H63.7594V205.933Z" fill="#18BBB9"/>
<path d="M64.4748 205.933L57.5574 267.233H56.8408L63.7594 205.933H64.4748V205.933Z" fill="#0FBAB9"/>
<path d="M65.1903 205.933L58.2728 267.233H57.5574L64.4748 205.933H65.1903V205.933Z" fill="#03BBB8"/>
<path d="M65.9068 205.933L58.9883 267.233H58.2728L65.1903 205.933H65.9068V205.933Z" fill="#06B8B6"/>
<path d="M66.6223 205.933L59.7037 267.233H58.9883L65.9068 205.933H66.6223V205.933Z" fill="#06B8B6"/>
<path d="M67.3377 205.933L60.4203 267.233H59.7037L66.6223 205.933H67.3377Z" fill="#03B7B5"/>
<path d="M68.0532 205.933L61.1357 267.233H60.4203L67.3377 205.933H68.0532V205.933Z" fill="#04B7B4"/>
<path d="M68.7697 205.933L61.8512 267.233H61.1357L68.0532 205.933H68.7697Z" fill="#00B6B5"/>
<path d="M69.4852 205.933L62.5666 267.233H61.8512L68.7697 205.933H69.4852V205.933Z" fill="#03B6B4"/>
<path d="M70.2006 205.933L63.2832 267.233H62.5666L69.4852 205.933H70.2006V205.933Z" fill="#05B6B2"/>
<path d="M70.9161 205.933L63.9986 267.233H63.2832L70.2006 205.933H70.9161V205.933Z" fill="#01B5B1"/>
<path d="M71.6326 205.933L64.7141 267.233H63.9986L70.916 205.933H71.6326V205.933Z" fill="#01B5B1"/>
<path d="M72.3481 205.933L65.4295 267.233H64.7141L71.6326 205.933H72.3481V205.933Z" fill="#00B4B1"/>
<path d="M73.0635 205.933L66.1461 267.233H65.4295L72.3481 205.933H73.0635V205.933Z" fill="#00B3B0"/>
<path d="M73.7801 205.933L66.8615 267.233H66.1461L73.0635 205.933H73.7801V205.933Z" fill="#00B3B0"/>
<path d="M74.4955 205.933L67.577 267.233H66.8615L73.7801 205.933H74.4955V205.933Z" fill="#00B2AF"/>
<path d="M75.211 205.933L68.2924 267.233H67.577L74.4955 205.933H75.211V205.933Z" fill="#00B2AE"/>
<path d="M75.9264 205.933L69.009 267.233H68.2924L75.211 205.933H75.9264V205.933Z" fill="#00B1AE"/>
<path d="M76.643 205.933L69.7244 267.233H69.009L75.9264 205.933H76.643V205.933Z" fill="#00B1AD"/>
<path d="M77.3584 205.933L70.4399 267.233H69.7244L76.643 205.933H77.3584V205.933Z" fill="#00B0AC"/>
<path d="M78.0739 205.933L71.1564 267.233H70.4399L77.3584 205.933H78.0739V205.933Z" fill="#00AFAC"/>
<path d="M89.688 205.933L90.0887 205.978V267.233H71.1564L78.0739 205.933H89.688V205.933Z" fill="#00AFAC"/>
<path d="M161.09 228.745L160.601 218.242H161.09V228.745Z" fill="#75CACA"/>
<path d="M161.09 239.78L160.088 218.242H160.601L161.09 228.745V239.78Z" fill="#74CBCA"/>
<path d="M161.09 250.816L159.574 218.242H160.088L161.09 239.78V250.816V250.816Z" fill="#74CBCA"/>
<path d="M160.734 254.199L159.062 218.242H159.574L161.09 250.816V254.199H160.734V254.199Z" fill="#73CBCA"/>
<path d="M160.22 254.199L158.548 218.242H159.062L160.734 254.199H160.22ZM159.707 254.199L158.035 218.242H158.548L160.22 254.199H159.707Z" fill="#72C9C9"/>
<path d="M159.193 254.199L157.521 218.242H158.035L159.707 254.199H159.193Z" fill="#70CACA"/>
<path d="M158.68 254.199L157.008 218.242H157.521L159.193 254.199H158.68Z" fill="#6FCAC8"/>
<path d="M158.168 254.199L156.494 218.242H157.008L158.68 254.199H158.168Z" fill="#6EC8C8"/>
<path d="M157.654 254.199L155.981 218.242H156.494L158.168 254.199H157.654Z" fill="#6EC8C8"/>
<path d="M157.141 254.199L155.467 218.242H155.981L157.654 254.199H157.141Z" fill="#6CC9C9"/>
<path d="M156.627 254.199L154.954 218.242H155.467L157.141 254.199H156.627Z" fill="#6DC9C8"/>
<path d="M156.114 254.199L154.44 218.242H154.954L156.627 254.199H156.114Z" fill="#69C7C8"/>
<path d="M155.6 254.199L153.928 218.242H154.44L156.114 254.199H155.6Z" fill="#69C7C8"/>
<path d="M155.087 254.199L153.414 218.242H153.928L155.6 254.199H155.087Z" fill="#69C8C7"/>
<path d="M154.573 254.199L152.901 218.242H153.414L155.087 254.199H154.573Z" fill="#68C8C7"/>
<path d="M154.06 254.199L152.387 218.242H152.901L154.573 254.199H154.06Z" fill="#67C7C7"/>
<path d="M153.546 254.199L151.874 218.242H152.387L154.06 254.199H153.546Z" fill="#65C7C7"/>
<path d="M153.034 254.199L151.361 218.242H151.874L153.546 254.199H153.034Z" fill="#64C7C7"/>
<path d="M152.52 254.199L150.847 218.242H151.361L153.034 254.199H152.52Z" fill="#63C6C6"/>
<path d="M152.007 254.199L150.334 218.242H150.847L152.52 254.199H152.007Z" fill="#60C6C6"/>
<path d="M151.493 254.199L149.82 218.242H150.334L152.007 254.199H151.493Z" fill="#60C6C5"/>
<path d="M150.98 254.199L149.308 218.242H149.82L151.493 254.199H150.98Z" fill="#5FC6C5"/>
<path d="M150.466 254.199L148.794 218.242H149.308L150.98 254.199H150.466Z" fill="#5FC6C5"/>
<path d="M149.953 254.199L148.281 218.242H148.794L150.466 254.199H149.953Z" fill="#5CC5C4"/>
<path d="M149.439 254.199L147.767 218.242H148.281L149.953 254.199H149.439Z" fill="#5AC5C4"/>
<path d="M148.926 254.199L147.254 218.242H147.767L149.439 254.199H148.926Z" fill="#5AC5C4"/>
<path d="M148.414 254.199L146.74 218.242H147.254L148.926 254.199H148.414Z" fill="#57C4C4"/>
<path d="M147.9 254.199L146.227 218.242H146.74L148.414 254.199H147.9Z" fill="#58C4C3"/>
<path d="M147.387 254.199L145.713 218.242H146.227L147.9 254.199H147.387Z" fill="#55C4C3"/>
<path d="M146.873 254.199L145.2 218.242H145.713L147.387 254.199H146.873ZM146.36 254.199L144.686 218.242H145.2L146.873 254.199H146.36Z" fill="#53C3C2"/>
<path d="M145.846 254.199L144.174 218.242H144.686L146.36 254.199H145.846Z" fill="#52C3C2"/>
<path d="M145.333 254.199L143.66 218.242H144.174L145.846 254.199H145.333Z" fill="#50C3C2"/>
<path d="M144.819 254.199L143.147 218.242H143.66L145.333 254.199H144.819Z" fill="#50C1C0"/>
<path d="M144.306 254.199L142.633 218.242H143.147L144.819 254.199H144.306Z" fill="#4DC2C1"/>
<path d="M143.792 254.199L142.12 218.242H142.633L144.306 254.199H143.792Z" fill="#4CC2C0"/>
<path d="M143.28 254.199L141.607 218.242H142.12L143.792 254.199H143.28Z" fill="#4BC0BF"/>
<path d="M142.766 254.199L141.093 218.242H141.607L143.28 254.199H142.766Z" fill="#47C1BE"/>
<path d="M142.253 254.199L140.58 218.242H141.093L142.766 254.199H142.253Z" fill="#46C0BE"/>
<path d="M141.739 254.199L140.066 218.242H140.58L142.253 254.199H141.739Z" fill="#43C0BE"/>
<path d="M141.226 254.199L139.554 218.242H140.066L141.739 254.199H141.226Z" fill="#41C0BE"/>
<path d="M140.712 254.199L139.04 218.242H139.554L141.226 254.199H140.712Z" fill="#40BFBD"/>
<path d="M140.199 254.199L138.527 218.242H139.04L140.712 254.199H140.199Z" fill="#3BBFBD"/>
<path d="M139.685 254.199L138.013 218.242H138.527L140.199 254.199H139.685Z" fill="#3CBFBC"/>
<path d="M139.172 254.199L137.5 218.242H138.013L139.685 254.199H139.172Z" fill="#39BFBC"/>
<path d="M138.658 254.199L136.986 218.242H137.5L139.172 254.199H138.658Z" fill="#34BEBD"/>
<path d="M138.146 254.199L136.473 218.242H136.986L138.658 254.199H138.146Z" fill="#32BEBB"/>
<path d="M137.633 254.199L135.959 218.242H136.473L138.146 254.199H137.633Z" fill="#2FBEBC"/>
<path d="M137.119 254.199L135.446 218.242H135.959L137.633 254.199H137.119Z" fill="#2DBDBB"/>
<path d="M136.606 254.199L134.932 218.242H135.446L137.119 254.199H136.606Z" fill="#2BBDBA"/>
<path d="M136.092 254.199L134.42 218.242H134.932L136.606 254.199H136.092Z" fill="#24BCBB"/>
<path d="M135.579 254.199L133.906 218.242H134.42L136.092 254.199H135.579Z" fill="#21BCB9"/>
<path d="M135.065 254.199L133.393 218.242H133.906L135.579 254.199H135.065V254.199Z" fill="#18BBB9"/>
<path d="M134.552 254.199L132.879 218.242H133.393L135.065 254.199H134.552Z" fill="#16BAB9"/>
<path d="M134.038 254.199L132.366 218.242H132.879L134.552 254.199H134.038Z" fill="#11BAB7"/>
<path d="M133.526 254.199L131.852 218.242H132.366L134.038 254.199H133.526Z" fill="#03BBB8"/>
<path d="M133.012 254.199L131.339 218.242H131.852L133.526 254.199H133.012Z" fill="#06B8B6"/>
<path d="M132.499 254.199L130.826 218.242H131.339L133.012 254.199H132.499Z" fill="#06B8B6"/>
<path d="M131.985 254.199L130.312 218.242H130.826L132.499 254.199H131.985Z" fill="#06B8B6"/>
<path d="M131.472 254.199L129.8 218.242H130.312L131.985 254.199H131.472Z" fill="#00B7B6"/>
<path d="M130.958 254.199L129.286 218.242H129.8L131.472 254.199H130.958Z" fill="#03B7B5"/>
<path d="M130.445 254.199L128.773 218.242H129.286L130.958 254.199H130.445Z" fill="#04B7B4"/>
<path d="M129.931 254.199L128.259 218.242H128.773L130.445 254.199H129.931Z" fill="#00B6B5"/>
<path d="M129.418 254.199L127.746 218.242H128.259L129.931 254.199H129.418Z" fill="#00B6B5"/>
<path d="M128.904 254.199L127.232 218.242H127.746L129.418 254.199H128.904Z" fill="#00B6B5"/>
<path d="M128.392 254.199L126.719 218.242H127.232L128.904 254.199H128.392ZM127.879 254.199L126.205 218.242H126.719L128.392 254.199H127.879Z" fill="#03B6B4"/>
<path d="M127.365 254.199L125.692 218.242H126.205L127.879 254.199H127.365Z" fill="#05B6B2"/>
<path d="M126.852 254.199L125.178 218.242H125.692L127.365 254.199H126.852Z" fill="#01B5B1"/>
<path d="M126.338 254.199L125.177 229.234V218.242H125.178L126.852 254.199H126.338V254.199ZM125.825 254.199L125.177 240.27V229.234L126.338 254.199H125.825V254.199Z" fill="#01B5B1"/>
<path d="M125.311 254.199L125.177 251.305V240.27L125.825 254.199H125.311Z" fill="#00B4B1"/>
<path d="M125.177 251.305L125.311 254.199H125.177V251.305Z" fill="#00B4B1"/>
<path d="M102.406 114.382L102.406 118.393L140.549 153.879L140.852 235.49L133.66 228.337L133.688 236.217L142.992 245.464L152.227 236.149L152.198 228.268L145.057 235.475L144.906 194.67L144.755 153.864L102.406 114.382Z" fill="white"/>
<path d="M40.6501 238.432L59.2584 256.924L77.7282 238.295L77.6698 222.534L61.2948 239.062L60.9926 157.451L102.406 118.393L102.406 114.382L56.787 157.466L56.9381 198.271L57.0892 239.076L40.5917 222.673L40.6501 238.432Z" fill="white"/>
</svg>
